<?xml version="1.0" encoding="UTF-8" standalone="no"?><svg xmlns="http://www.w3.org/2000/svg" xmlns:xlink="http://www.w3.org/1999/xlink" fill="#000000" height="285.7" preserveAspectRatio="xMidYMid meet" version="1" viewBox="0.0 0.0 285.7 285.7" width="285.7" zoomAndPan="magnify"><defs><clipPath id="a"><path d="M 0 0 L 285.738281 0 L 285.738281 285.738281 L 0 285.738281 Z M 0 0"/></clipPath></defs><g><g clip-path="url(#a)" id="change1_1"><path d="M 285.738281 142.871094 C 285.738281 221.773438 221.773438 285.738281 142.871094 285.738281 C 63.964844 285.738281 0 221.773438 0 142.871094 C 0 63.964844 63.964844 0 142.871094 0 C 221.773438 0 285.738281 63.964844 285.738281 142.871094" fill="#090913"/></g><g id="change2_1"><path d="M 142.871094 261.574219 C 77.308594 261.574219 24.164062 208.429688 24.164062 142.871094 C 24.164062 77.3125 77.308594 24.164062 142.871094 24.164062 C 208.429688 24.164062 261.574219 77.3125 261.574219 142.871094 C 261.574219 208.429688 208.429688 261.574219 142.871094 261.574219 Z M 142.871094 16.105469 C 72.859375 16.105469 16.105469 72.859375 16.105469 142.871094 C 16.105469 212.882812 72.859375 269.636719 142.871094 269.636719 C 212.878906 269.636719 269.636719 212.882812 269.636719 142.871094 C 269.636719 72.859375 212.878906 16.105469 142.871094 16.105469" fill="#c7b3fc"/></g><g id="change2_2"><path d="M 232.441406 100.535156 L 207.917969 76.007812 L 123.050781 160.875 L 77.566406 115.390625 L 53.039062 139.914062 L 123.113281 209.992188 L 147.640625 185.464844 L 147.574219 185.402344 L 232.441406 100.535156" fill="#c7b3fc"/></g></g></svg>